<svg width="17" height="12" viewBox="0 0 17 12" fill="none" xmlns="http://www.w3.org/2000/svg">
<path fill-rule="evenodd" clip-rule="evenodd" d="M11.081 11.3536C10.8858 11.1583 10.8858 10.8417 11.081 10.6464L15.2275 6.5L1.43457 6.5C1.15843 6.5 0.93457 6.27614 0.93457 6C0.93457 5.72386 1.15843 5.5 1.43457 5.5L15.2275 5.5L11.081 1.35355C10.8858 1.15829 10.8858 0.841709 11.081 0.646447C11.2763 0.451184 11.5929 0.451184 11.7881 0.646447L16.7881 5.64645C16.8361 5.69439 16.8722 5.74964 16.8966 5.80861C16.9211 5.86756 16.9346 5.93221 16.9346 6C16.9346 6.06779 16.9211 6.13244 16.8966 6.19139C16.8722 6.25036 16.8361 6.30561 16.7881 6.35355L11.7881 11.3536C11.5929 11.5488 11.2763 11.5488 11.081 11.3536Z" fill="#333333"/>
</svg>
