<svg width="16" height="16" viewBox="0 0 16 16" fill="none" xmlns="http://www.w3.org/2000/svg">
<path fill-rule="evenodd" clip-rule="evenodd" d="M10 1H6V3H10V1ZM11 3V0.5C11 0.223858 10.7761 0 10.5 0H5.5C5.22386 0 5 0.223858 5 0.5V3H0.5C0.223858 3 0 3.22386 0 3.5C0 3.77614 0.223858 4 0.5 4H5.5H10.5H15.5C15.7761 4 16 3.77614 16 3.5C16 3.22386 15.7761 3 15.5 3H11ZM2 6.5V13.5C2 14.8811 3.11886 16 4.5 16H11.5C12.8811 16 14 14.8811 14 13.5V6.5C14 6.22386 13.7761 6 13.5 6C13.2239 6 13 6.22386 13 6.5V13.5C13 14.3289 12.3289 15 11.5 15H4.5C3.67114 15 3 14.3289 3 13.5V6.5C3 6.22386 2.77614 6 2.5 6C2.22386 6 2 6.22386 2 6.5Z" fill="black"/>
</svg>
