<svg width="108" height="45" viewBox="0 0 108 45" fill="none" xmlns="http://www.w3.org/2000/svg">
<g clip-path="url(#clip0)">
<path d="M43.2656 24.2344H45.7266V34.2051C45.7266 35.5658 45.3001 36.6465 44.4473 37.4473C43.6009 38.248 42.4811 38.6484 41.0879 38.6484C39.6035 38.6484 38.4577 38.2741 37.6504 37.5254C36.8431 36.7767 36.4395 35.735 36.4395 34.4004H38.9004C38.9004 35.1556 39.0859 35.7253 39.457 36.1094C39.8346 36.487 40.3783 36.6758 41.0879 36.6758C41.752 36.6758 42.2793 36.4577 42.6699 36.0215C43.0671 35.5788 43.2656 34.9701 43.2656 34.1953V24.2344ZM47.8848 33.0723C47.8848 32.0371 48.0898 31.1061 48.5 30.2793C48.9102 29.446 49.4863 28.8079 50.2285 28.3652C50.9707 27.916 51.8236 27.6914 52.7871 27.6914C54.2129 27.6914 55.3685 28.1504 56.2539 29.0684C57.1458 29.9863 57.6276 31.2038 57.6992 32.7207L57.709 33.2773C57.709 34.319 57.5072 35.25 57.1035 36.0703C56.7064 36.8906 56.1335 37.5254 55.3848 37.9746C54.6426 38.4238 53.7832 38.6484 52.8066 38.6484C51.3158 38.6484 50.1211 38.1536 49.2227 37.1641C48.3307 36.168 47.8848 34.8431 47.8848 33.1895V33.0723ZM50.2578 33.2773C50.2578 34.3646 50.4824 35.2174 50.9316 35.8359C51.3809 36.4479 52.0059 36.7539 52.8066 36.7539C53.6074 36.7539 54.2292 36.4414 54.6719 35.8164C55.1211 35.1914 55.3457 34.2767 55.3457 33.0723C55.3457 32.0046 55.1146 31.1582 54.6523 30.5332C54.1966 29.9082 53.5749 29.5957 52.7871 29.5957C52.0124 29.5957 51.3971 29.9049 50.9414 30.5234C50.4857 31.1354 50.2578 32.0534 50.2578 33.2773ZM68.9883 33.2773C68.9883 34.918 68.6204 36.2233 67.8848 37.1934C67.1556 38.1634 66.1497 38.6484 64.8672 38.6484C63.6302 38.6484 62.6667 38.2025 61.9766 37.3105L61.8594 38.4531H59.7109V23.4531H62.084V28.9023C62.7676 28.0951 63.6888 27.6914 64.8477 27.6914C66.1367 27.6914 67.1491 28.1699 67.8848 29.127C68.6204 30.084 68.9883 31.4219 68.9883 33.1406V33.2773ZM66.6152 33.0723C66.6152 31.9264 66.4134 31.0671 66.0098 30.4941C65.6061 29.9212 65.0202 29.6348 64.252 29.6348C63.2233 29.6348 62.5007 30.084 62.084 30.9824V35.3379C62.5072 36.2559 63.2363 36.7148 64.2715 36.7148C65.0137 36.7148 65.5866 36.4382 65.9902 35.8848C66.3939 35.3314 66.6022 34.4948 66.6152 33.375V33.0723ZM79.1295 24.6531C78.9829 24.9331 78.6695 25.0731 78.1895 25.0731C77.5629 25.0731 77.1962 25.0931 77.0895 25.1331C76.5962 25.3465 76.0229 25.5865 75.3695 25.8531C75.3295 26.8665 75.3095 27.9798 75.3095 29.1931C75.3095 31.6598 75.3829 34.1865 75.5295 36.7731C75.5295 36.9598 75.5962 37.2065 75.7295 37.5131C75.8762 37.8065 75.9495 38.0198 75.9495 38.1531C75.9495 38.3265 75.8895 38.4865 75.7695 38.6331C75.4762 39.0331 75.0362 39.2331 74.4495 39.2331C73.9429 39.2331 73.4562 39.0931 72.9895 38.8131C72.5362 38.5465 72.2762 38.2265 72.2095 37.8531C72.1695 37.6531 72.2695 37.4265 72.5095 37.1731C72.7629 36.9198 72.8895 36.6798 72.8895 36.4531C72.7962 33.7998 72.7495 31.4798 72.7495 29.4931C72.7495 28.2931 72.7695 27.3331 72.8095 26.6131C72.7962 26.6131 72.6095 26.6798 72.2495 26.8131C72.0095 26.9065 71.8162 26.9531 71.6695 26.9531C71.4562 26.9531 71.2629 26.8798 71.0895 26.7331C70.6629 26.3731 70.3962 26.1331 70.2895 26.0131C70.0762 25.7731 69.9695 25.5198 69.9695 25.2531C69.9695 25.1598 69.9829 25.0531 70.0095 24.9331C70.0495 24.7465 71.0229 24.3665 72.9295 23.7931C74.9829 23.1665 76.0895 22.7998 76.2495 22.6931C76.3962 22.6398 76.5562 22.5198 76.7295 22.3331C76.9162 22.1465 77.1162 22.0398 77.3295 22.0131C77.6229 21.9865 78.0095 22.1798 78.4895 22.5931C79.0229 23.0598 79.2895 23.5465 79.2895 24.0531C79.2895 24.2531 79.2362 24.4531 79.1295 24.6531ZM84.5031 36.3531C84.3965 36.8598 84.0365 37.3998 83.4231 37.9731C83.3298 38.1198 82.9631 38.3131 82.3231 38.5531C81.5898 38.8331 80.9565 38.9531 80.4231 38.9131C79.4231 38.8465 78.6365 38.2731 78.0631 37.1931C77.5431 36.1931 77.2831 34.9665 77.2831 33.5131C77.2831 31.9398 77.5765 30.5598 78.1631 29.3731C78.8165 28.0665 79.6898 27.3331 80.7831 27.1731C80.9965 27.1465 81.2031 27.1331 81.4031 27.1331C82.9898 27.1331 83.8631 28.1065 84.0231 30.0531C84.1031 30.9465 83.7498 31.9198 82.9631 32.9731C82.1098 34.1331 81.0165 34.9465 79.6831 35.4131C79.8298 35.9465 79.9431 36.2931 80.0231 36.4531C80.2098 36.7865 80.4631 36.9531 80.7831 36.9531C81.0898 36.9531 81.4165 36.8331 81.7631 36.5931C82.0565 36.3931 82.2565 36.1998 82.3631 36.0131C82.4165 35.9865 82.4698 35.8398 82.5231 35.5731C82.5765 35.2931 82.7165 35.0931 82.9431 34.9731C83.0231 34.9331 83.1165 34.9131 83.2231 34.9131C83.5431 34.9131 83.8498 35.0731 84.1431 35.3931C84.4498 35.6998 84.5698 36.0198 84.5031 36.3531ZM81.3631 29.3131C80.8298 29.3131 80.3965 29.6931 80.0631 30.4531C79.6231 31.4665 79.4431 32.4665 79.5231 33.4531C80.1498 33.2531 80.7298 32.7865 81.2631 32.0531C81.7965 31.3198 82.0631 30.6665 82.0631 30.0931C82.0631 29.5731 81.8298 29.3131 81.3631 29.3131ZM93.6522 28.2531C93.5989 28.5331 93.3455 28.7265 92.8922 28.8331C92.3589 28.9665 92.0189 29.1198 91.8722 29.2931L88.6122 33.0531V36.0931C88.6122 36.3865 88.6922 36.6865 88.8522 36.9931C89.0255 37.2865 89.1122 37.5131 89.1122 37.6731C89.1122 37.8331 89.0655 38.0131 88.9722 38.2131C88.7455 38.7198 88.2855 38.9731 87.5922 38.9731C87.1122 38.9731 86.7322 38.8198 86.4522 38.5131C86.2655 38.3131 86.1722 38.0598 86.1722 37.7531C86.1722 37.6465 86.1855 37.4731 86.2122 37.2331C86.2389 36.9931 86.2522 36.7998 86.2522 36.6531V29.1731C86.2522 29.0531 86.1989 28.9065 86.0922 28.7331C85.9855 28.5598 85.9322 28.4198 85.9322 28.3131C85.9322 28.2331 85.9589 28.1398 86.0122 28.0331C86.1855 27.7131 86.7255 27.5531 87.6322 27.5531C88.3389 27.5531 88.7389 27.7198 88.8322 28.0531C88.8722 28.1865 88.8922 28.2998 88.8922 28.3931C88.8922 28.5398 88.8389 28.6531 88.7322 28.7331C88.6255 28.8131 88.5722 28.8931 88.5722 28.9731L88.6122 29.6931L90.3322 27.8731C90.5322 27.6465 90.7389 27.4198 90.9522 27.1931C91.1789 26.9665 91.4389 26.8398 91.7322 26.8131C92.1855 26.7731 92.6189 26.8731 93.0322 27.1131C93.4589 27.3531 93.6722 27.6665 93.6722 28.0531C93.6722 28.1198 93.6655 28.1865 93.6522 28.2531ZM97.7808 23.4531C97.8208 23.4931 97.8408 23.5598 97.8408 23.6531C97.8408 23.7731 97.8008 23.9798 97.7208 24.2731C97.6274 24.6331 97.5674 24.8798 97.5408 25.0131C97.5141 25.1465 97.5274 25.4398 97.5808 25.8931C97.5808 26.1731 97.4941 26.3598 97.3208 26.4531C97.1608 26.5331 96.9541 26.5731 96.7008 26.5731C96.3408 26.5731 95.9741 26.4998 95.6008 26.3531C95.1474 26.1665 94.9208 25.9198 94.9208 25.6131C94.9208 25.5198 94.9608 25.3931 95.0408 25.2331C95.1208 25.0598 95.1674 24.9198 95.1808 24.8131C95.2074 24.7065 95.2074 24.4398 95.1808 24.0131C95.1541 23.6798 95.2208 23.4531 95.3808 23.3331C95.5941 23.1731 95.9741 23.0931 96.5208 23.0931C97.1208 23.0931 97.5408 23.2131 97.7808 23.4531ZM98.0408 28.3331C98.0408 28.5198 97.9341 28.8131 97.7208 29.2131C97.5208 29.5998 97.4208 29.9198 97.4208 30.1731V36.0531C97.4208 36.3198 97.4941 36.6998 97.6408 37.1931C97.7874 37.6731 97.8608 38.0065 97.8608 38.1931C97.8608 38.4598 97.7541 38.6598 97.5408 38.7931C97.2074 39.0065 96.8474 39.1131 96.4608 39.1131C95.9541 39.1131 95.5941 38.9398 95.3808 38.5931C95.1008 38.1665 94.9608 36.8931 94.9608 34.7731C94.9608 34.2665 94.9674 33.4798 94.9808 32.4131C95.0074 31.3331 95.0208 30.5465 95.0208 30.0531C95.0208 29.8665 95.0008 29.6265 94.9608 29.3331C94.9208 29.0265 94.9008 28.8065 94.9008 28.6731C94.9008 28.2331 95.0608 27.8531 95.3808 27.5331C95.5141 27.3998 95.7608 27.3331 96.1208 27.3331C96.4808 27.3331 96.8408 27.3931 97.2008 27.5131C97.5608 27.6198 97.7874 27.7465 97.8808 27.8931C97.9874 28.0398 98.0408 28.1865 98.0408 28.3331ZM107.757 27.8531C107.783 28.0798 107.65 28.2931 107.357 28.4931C106.983 28.7598 106.757 28.9598 106.677 29.0931L104.397 33.0531L106.317 36.7731C106.343 36.8131 106.483 37.0198 106.737 37.3931C106.897 37.6198 106.977 37.8265 106.977 38.0131C106.977 38.1198 106.957 38.2265 106.917 38.3331C106.69 38.9065 106.27 39.1931 105.657 39.1931C105.403 39.1931 105.157 39.1398 104.917 39.0331C104.583 38.8865 104.397 38.6931 104.357 38.4531C104.33 38.2265 104.303 37.9998 104.277 37.7731L103.197 35.0931L101.997 37.4931C101.917 37.7598 101.823 38.0265 101.717 38.2931C101.61 38.5465 101.403 38.6731 101.097 38.6731C100.71 38.6731 100.337 38.5398 99.9766 38.2731C99.5899 37.9665 99.4232 37.6265 99.4766 37.2531C99.5032 37.1065 99.5899 36.9531 99.7366 36.7931C99.8966 36.6198 99.9966 36.4931 100.037 36.4131L101.797 33.2131L100.557 29.3331C100.517 29.1998 100.383 29.0398 100.157 28.8531C99.9432 28.6531 99.8232 28.4665 99.7966 28.2931C99.7566 27.9865 99.9432 27.7131 100.357 27.4731C100.73 27.2731 101.13 27.1731 101.557 27.1731C101.797 27.1731 101.983 27.2131 102.117 27.2931C102.41 27.4798 102.59 27.7198 102.657 28.0131C102.723 28.2931 102.783 28.5731 102.837 28.8531L103.437 30.7331L104.757 28.3731C104.877 28.1198 105.003 27.8598 105.137 27.5931C105.283 27.3265 105.477 27.1465 105.717 27.0531C105.863 26.9865 106.03 26.9531 106.217 26.9531C106.563 26.9531 106.897 27.0531 107.217 27.2531C107.55 27.4398 107.73 27.6398 107.757 27.8531Z" fill="white"/>
<path opacity="0.138876" fill-rule="evenodd" clip-rule="evenodd" d="M35 40V29.9354V11.5399C35 10.2144 33.9255 9.13989 32.6 9.13989H4.77271V28.9273C4.77271 30.2528 5.84722 31.3273 7.17271 31.3273H24.6364C25.6941 31.3273 26.7088 31.7463 27.4584 32.4925L35 40Z" fill="black"/>
<path fill-rule="evenodd" clip-rule="evenodd" d="M28.8629 34.6688C29.3674 35.171 30.2273 34.8137 30.2273 34.1018V25.9624V7.56687C30.2273 6.24139 29.1528 5.16687 27.8273 5.16687H0V24.9543C0 26.2798 1.07452 27.3543 2.4 27.3543H19.8637C20.9214 27.3543 21.9361 27.7732 22.6857 28.5195L28.8629 34.6688Z" stroke="white" stroke-width="2.4"/>
<path d="M5.56818 15.4966L7.03497 16.3783C12.5438 19.6898 19.5082 19.3414 24.6591 15.4966V15.4966" stroke="white" stroke-width="3.2" stroke-linecap="round"/>
<path d="M8.75 4.76756V2.4C8.75 1.07452 9.82452 0 11.15 0H19.0773C20.4028 0 21.4773 1.07452 21.4773 2.4V4.76756" stroke="white" stroke-width="2.4"/>
</g>
<defs>
<clipPath id="clip0">
<rect width="108" height="44.4532" fill="white"/>
</clipPath>
</defs>
</svg>
