<svg width="32" height="32" viewBox="0 0 32 32" fill="none" xmlns="http://www.w3.org/2000/svg">
<path fill-rule="evenodd" clip-rule="evenodd" d="M0 15.9994C0 7.17708 7.17861 0 16 0C24.8238 0 32 7.17708 32 15.9994C32 24.8223 24.8234 32 16 32C7.17814 32 0 24.8217 0 15.9994ZM14.545 21.1009L22.9248 12.7213C23.4286 12.2175 23.4286 11.4018 22.9248 10.8972C22.4209 10.394 21.6052 10.394 21.1025 10.8972L13.6333 18.3666L10.9003 15.6327C10.3964 15.129 9.5807 15.129 9.07692 15.6327C8.57305 16.1365 8.57305 16.9522 9.07692 17.4566L12.7213 21.1009C12.9738 21.3523 13.3023 21.4791 13.6333 21.4791C13.9618 21.4791 14.2934 21.3522 14.545 21.1009Z" fill="white"/>
</svg>
